# xmcd
#
# Track frame offsets: 
#        150
#        12408
#        26334
#        37693
#        48531
#        61203
#        78044
#        92169
#        101727
#        113010
#        123677
#        135193
#        146176
#        159294
#        183796
#        197642
#        207105
#        220965
#        234106
#        247148
#        258995
#        270102
#        282377
#        294766
#
# Disc length: 4147 seconds
#
# Revision: 1
# Processed by: cddbd v1.5.2PL0 Copyright (c) Steve Scherf et al.
# Submitted via: ExactAudioCopyFreeDBPlugin 1.0
#
DISCID=41103118
DTITLE=Various Artist - Los Angeles Soul
DYEAR=2015
DGENRE=R&B
TTITLE0=Jeanette Jones - I Want Action
TTITLE1=Difosco - You Saved Me From Destruction
TTITLE2=Johnny Adams - No In-Between
TTITLE3=Johnny Copeland - I Was Born To Love You
TTITLE4=The Intentions - My Love She's Gone
TTITLE5=Jimmy Bee - I Only Have Eyes For You
TTITLE6=Lord Charles and The Prophets - Cherry Pie
TTITLE7=Earl Wright - I Don't Know
TTITLE8=Venetta Fields w.The Ikettes - Give Me A Chance (Try Me)
TTITLE9=Pat Hunt - You Are My First Love
TTITLE10=Felice Taylor - Sing Me A Love Song
TTITLE11=The Windjammers - All That Shines Is Not Gold
TTITLE12=Wayne Boykin - Tear My Love Down
TTITLE13=Pace-Setters - Push On Jesse Jackson
TTITLE14=Willie Gauff and The Love Brothers - I Know She's Gonna Leave
TTITLE15=Tommy Youngblood - Gone On Home
TTITLE16=The Other Brothers - It's Been A Long Time Baby
TTITLE17=Jackie Shane - You Are My Sunshine
TTITLE18=Larry Sanders - You're My Girl
TTITLE19=Millie Foster - Move A Little Closer
TTITLE20=Ruth Davis - I Need Money
TTITLE21=Robert Ramsey - Take A Look In Your Mind
TTITLE22=Wally Cox - I Need A Love
TTITLE23=Maurine Williams and The Mount Olive 2nd B.C. Choir - You're Go
TTITLE23=nna Miss Your Chance
EXTD=
EXTT0=
EXTT1=
EXTT2=
EXTT3=
EXTT4=
EXTT5=
EXTT6=
EXTT7=
EXTT8=
EXTT9=
EXTT10=
EXTT11=
EXTT12=
EXTT13=
EXTT14=
EXTT15=
EXTT16=
EXTT17=
EXTT18=
EXTT19=
EXTT20=
EXTT21=
EXTT22=
EXTT23=
PLAYORDER=
